<?xml version="1.0" encoding="utf-8"?>
<!-- Generator: Adobe Illustrator 19.2.1, SVG Export Plug-In . SVG Version: 6.00 Build 0)  -->
<svg version="1.1" id="layer" xmlns="http://www.w3.org/2000/svg" xmlns:xlink="http://www.w3.org/1999/xlink" x="0px" y="0px"
	 viewBox="0 0 652 652" style="enable-background:new 0 0 652 652;" xml:space="preserve">
<style type="text/css">
	.st0{fill:#6F7271;}
	.st1{fill:#378ACA;}
	.st2{fill:#1D48A4;}
</style>
<path class="st0" d="M168.5,314.1h12.2c10.3,0,17.4,7,17.4,16.2v0.1c0,9.2-7.1,16.4-17.4,16.4h-12.2V314.1L168.5,314.1z
	 M180.6,341.5c6.9,0,11.3-4.6,11.3-11v-0.1c0-6.4-4.4-11.1-11.3-11.1h-6.4v22.2C174.2,341.5,180.6,341.5,180.6,341.5z M208.7,346.8
	h5.7v-32.7h-5.7L208.7,346.8L208.7,346.8z M225.7,330.5c0,9.5,6.8,16.8,17,16.8c5,0,9.9-1.8,13.6-5.1l0-13.7h-13.9v5h8.3v6.1
	c-2.3,1.6-5,2.5-7.8,2.5h-0.1c-6.6,0-11.1-4.9-11.1-11.7v-0.1c0-6.3,4.6-11.5,10.6-11.5l0.4,0c3.4,0,6.5,1.3,8.8,3.5l3.6-4.3
	c-3.4-3.1-8-4.7-12.6-4.4l-0.2,0c-9.2,0-16.6,7.5-16.6,16.7c0,0.1,0,0.2,0,0.3L225.7,330.5L225.7,330.5z M269.4,346.7h5.7v-32.7
	h-5.7V346.7L269.4,346.7z M296.5,346.7h5.7v-27.3h10.4v-5.3h-26.5v5.3h10.4L296.5,346.7L296.5,346.7z M330.2,313.8h5.3l14.4,32.9h-6
	l-3.3-7.9H325l-3.4,7.9h-5.9L330.2,313.8z M338.4,333.7l-5.6-13.1l-5.6,13.1H338.4L338.4,333.7z M360.1,346.7H383v-5.2h-17.1v-27.5
	h-5.7L360.1,346.7L360.1,346.7z M413.6,314h14.5c3.5-0.2,6.9,1,9.5,3.3c1.7,1.8,2.7,4.1,2.7,6.8l0,0.3v0.2c0,5.4-3.2,8.6-7.8,9.9
	l8.8,12.4h-6.8l-8-11.5h-7.2v11.4h-5.7L413.6,314L413.6,314z M427.7,330.2c4.1,0,6.8-2.1,6.8-5.4v-0.1c0-3.5-2.5-5.4-6.8-5.4h-8.3
	v11L427.7,330.2L427.7,330.2z M451.1,346.8h24.5v-5.1h-18.7v-8.8h16.4v-5.1h-16.4v-8.5h18.5v-5.1h-24.2L451.1,346.8L451.1,346.8z
	 M498.5,313.8h5.3l14.4,32.9h-6.1l-3.3-7.9h-15.5l-3.4,7.9h-5.9L498.5,313.8z M506.7,333.8l-5.6-13.1l-5.6,13.1H506.7L506.7,333.8z
	 M527.8,346.8h22.9v-5.2h-17.2V314h-5.7L527.8,346.8L527.8,346.8z M566.2,346.8h5.8v-27.4h10.4V314h-26.5v5.3h10.4V346.8
	L566.2,346.8z M607.5,346.8h5.8v-13l13-19.7h-6.6l-9.3,14.5l-9.1-14.5h-6.8l13,19.8L607.5,346.8L607.5,346.8z"/>
<path class="st1" d="M115.8,284.2v9.6l7,2.1v9.7l-7-1.4v-8.4l-7-1.7v-12.8l-21.1-8.2v19.4l-7-1.7v-20.5l-7-2.7v116.6l7-2.9v-14.9
	l7-2.1v14.2l42.1-17.2v-71.8L115.8,284.2L115.8,284.2z M94.7,287.7l7,2.1v11.6l-7-1.4V287.7L94.7,287.7z M80.7,303.9l7,1v11.7
	l-7-0.4V303.9L80.7,303.9z M87.7,351.6l-7,1.4v-12.7l7-0.8V351.6L87.7,351.6z M101.8,353.5l-7,1.7v-22.3l-7,0.5v-10.8l7,0.1v10.2
	l7-0.5V353.5z M101.8,311.8l7,0.8v10.4l-7-0.1V311.8L101.8,311.8z M115.8,355.9l-7,2.1v-10.8l7-1.4V355.9L115.8,355.9z M122.9,344.4
	l-7,1.4v-28.3l7,0.5V344.4L122.9,344.4z"/>
<path class="st2" d="M26.3,290.1v70.7l41,21.6V268.8L26.3,290.1z"/>
</svg>
